<mxfile host="app.diagrams.net" modified="2022-10-20T00:02:04.472Z" agent="5.0 (Macintosh; Intel Mac OS X 10_15_7) AppleWebKit/537.36 (KHTML, like Gecko) Chrome/105.0.0.0 Safari/537.36" etag="uwtV3CklQipq23zy33OU" version="20.4.1" type="github">
  <diagram id="IndogpF814C0rhiB6may" name="Page-1">
    <mxGraphModel dx="949" dy="638" grid="1" gridSize="10" guides="1" tooltips="1" connect="1" arrows="1" fold="1" page="1" pageScale="1" pageWidth="850" pageHeight="1100" math="0" shadow="0">
      <root>
        <mxCell id="0" />
        <mxCell id="1" parent="0" />
        <mxCell id="WE2Rc9Y-2pUT0QXmq-oI-1" value="kubectl" style="rounded=0;whiteSpace=wrap;html=1;fillColor=#fff2cc;strokeColor=#d6b656;" vertex="1" parent="1">
          <mxGeometry x="104" y="69" width="50" height="20" as="geometry" />
        </mxCell>
        <mxCell id="WE2Rc9Y-2pUT0QXmq-oI-2" value="UI" style="rounded=0;whiteSpace=wrap;html=1;fillColor=#fff2cc;strokeColor=#d6b656;" vertex="1" parent="1">
          <mxGeometry x="164" y="69" width="30" height="20" as="geometry" />
        </mxCell>
        <mxCell id="WE2Rc9Y-2pUT0QXmq-oI-4" value="" style="rounded=0;whiteSpace=wrap;html=1;fillColor=#eeeeee;strokeColor=#36393d;" vertex="1" parent="1">
          <mxGeometry x="40" y="110" width="220" height="130" as="geometry" />
        </mxCell>
        <mxCell id="WE2Rc9Y-2pUT0QXmq-oI-3" value="Cli" style="rounded=0;whiteSpace=wrap;html=1;fillColor=#fff2cc;strokeColor=#d6b656;" vertex="1" parent="1">
          <mxGeometry x="204" y="69" width="30" height="20" as="geometry" />
        </mxCell>
        <mxCell id="WE2Rc9Y-2pUT0QXmq-oI-5" value="Auth" style="rounded=0;whiteSpace=wrap;html=1;fillColor=#94C6FF;" vertex="1" parent="1">
          <mxGeometry x="150" y="123.5" width="50" height="20" as="geometry" />
        </mxCell>
        <mxCell id="WE2Rc9Y-2pUT0QXmq-oI-43" value="" style="edgeStyle=none;rounded=0;orthogonalLoop=1;jettySize=auto;html=1;" edge="1" parent="1" source="WE2Rc9Y-2pUT0QXmq-oI-6" target="WE2Rc9Y-2pUT0QXmq-oI-7">
          <mxGeometry relative="1" as="geometry" />
        </mxCell>
        <mxCell id="WE2Rc9Y-2pUT0QXmq-oI-44" style="edgeStyle=none;rounded=0;orthogonalLoop=1;jettySize=auto;html=1;entryX=0.75;entryY=0;entryDx=0;entryDy=0;" edge="1" parent="1" source="WE2Rc9Y-2pUT0QXmq-oI-6" target="WE2Rc9Y-2pUT0QXmq-oI-8">
          <mxGeometry relative="1" as="geometry" />
        </mxCell>
        <mxCell id="WE2Rc9Y-2pUT0QXmq-oI-45" style="edgeStyle=none;rounded=0;orthogonalLoop=1;jettySize=auto;html=1;entryX=0.5;entryY=0;entryDx=0;entryDy=0;" edge="1" parent="1" source="WE2Rc9Y-2pUT0QXmq-oI-6" target="WE2Rc9Y-2pUT0QXmq-oI-9">
          <mxGeometry relative="1" as="geometry" />
        </mxCell>
        <mxCell id="WE2Rc9Y-2pUT0QXmq-oI-6" value="Api Server" style="rounded=0;whiteSpace=wrap;html=1;fillColor=#94C6FF;" vertex="1" parent="1">
          <mxGeometry x="104" y="143.5" width="136" height="31" as="geometry" />
        </mxCell>
        <mxCell id="WE2Rc9Y-2pUT0QXmq-oI-7" value="" style="sketch=0;html=1;dashed=0;whitespace=wrap;fillColor=#2875E2;strokeColor=#ffffff;points=[[0.005,0.63,0],[0.1,0.2,0],[0.9,0.2,0],[0.5,0,0],[0.995,0.63,0],[0.72,0.99,0],[0.5,1,0],[0.28,0.99,0]];shape=mxgraph.kubernetes.icon;prIcon=etcd" vertex="1" parent="1">
          <mxGeometry x="40" y="140" width="40" height="38" as="geometry" />
        </mxCell>
        <mxCell id="WE2Rc9Y-2pUT0QXmq-oI-8" value="controller Manager" style="rounded=0;whiteSpace=wrap;html=1;fillColor=#94C6FF;" vertex="1" parent="1">
          <mxGeometry x="60" y="200" width="70" height="30" as="geometry" />
        </mxCell>
        <mxCell id="WE2Rc9Y-2pUT0QXmq-oI-9" value="Scheduler" style="rounded=0;whiteSpace=wrap;html=1;fillColor=#94C6FF;" vertex="1" parent="1">
          <mxGeometry x="154" y="200" width="70" height="30" as="geometry" />
        </mxCell>
        <mxCell id="WE2Rc9Y-2pUT0QXmq-oI-10" value="" style="rounded=0;whiteSpace=wrap;html=1;fillColor=#f9f7ed;strokeColor=#36393d;" vertex="1" parent="1">
          <mxGeometry x="280" y="70" width="290" height="140" as="geometry" />
        </mxCell>
        <mxCell id="WE2Rc9Y-2pUT0QXmq-oI-82" style="edgeStyle=orthogonalEdgeStyle;rounded=0;orthogonalLoop=1;jettySize=auto;html=1;entryX=0.5;entryY=1;entryDx=0;entryDy=0;strokeColor=#000000;" edge="1" parent="1" source="WE2Rc9Y-2pUT0QXmq-oI-11" target="WE2Rc9Y-2pUT0QXmq-oI-13">
          <mxGeometry relative="1" as="geometry" />
        </mxCell>
        <mxCell id="WE2Rc9Y-2pUT0QXmq-oI-11" value="kubelet" style="rounded=0;whiteSpace=wrap;html=1;fillColor=#dae8fc;strokeColor=#6c8ebf;" vertex="1" parent="1">
          <mxGeometry x="310" y="149" width="70" height="20" as="geometry" />
        </mxCell>
        <mxCell id="WE2Rc9Y-2pUT0QXmq-oI-86" style="edgeStyle=orthogonalEdgeStyle;rounded=0;orthogonalLoop=1;jettySize=auto;html=1;entryX=0.5;entryY=1;entryDx=0;entryDy=0;strokeColor=#000000;" edge="1" parent="1" source="WE2Rc9Y-2pUT0QXmq-oI-12" target="WE2Rc9Y-2pUT0QXmq-oI-17">
          <mxGeometry relative="1" as="geometry" />
        </mxCell>
        <mxCell id="WE2Rc9Y-2pUT0QXmq-oI-12" value="kube-proxy" style="rounded=0;whiteSpace=wrap;html=1;fillColor=#dae8fc;strokeColor=#6c8ebf;" vertex="1" parent="1">
          <mxGeometry x="440" y="149" width="70" height="20" as="geometry" />
        </mxCell>
        <mxCell id="WE2Rc9Y-2pUT0QXmq-oI-13" value="" style="rounded=0;whiteSpace=wrap;html=1;fillColor=#cce5ff;strokeColor=#36393d;" vertex="1" parent="1">
          <mxGeometry x="290" y="77" width="110" height="60" as="geometry" />
        </mxCell>
        <mxCell id="WE2Rc9Y-2pUT0QXmq-oI-14" value="container" style="rounded=0;whiteSpace=wrap;html=1;fillColor=#dae8fc;strokeColor=#6c8ebf;" vertex="1" parent="1">
          <mxGeometry x="302" y="102" width="90" height="30" as="geometry" />
        </mxCell>
        <mxCell id="WE2Rc9Y-2pUT0QXmq-oI-15" value="container" style="rounded=0;whiteSpace=wrap;html=1;fillColor=#dae8fc;strokeColor=#6c8ebf;" vertex="1" parent="1">
          <mxGeometry x="297" y="97" width="90" height="30" as="geometry" />
        </mxCell>
        <mxCell id="WE2Rc9Y-2pUT0QXmq-oI-16" value="container" style="rounded=0;whiteSpace=wrap;html=1;fillColor=#dae8fc;strokeColor=#6c8ebf;" vertex="1" parent="1">
          <mxGeometry x="293" y="92" width="90" height="30" as="geometry" />
        </mxCell>
        <mxCell id="WE2Rc9Y-2pUT0QXmq-oI-17" value="" style="rounded=0;whiteSpace=wrap;html=1;fillColor=#cce5ff;strokeColor=#36393d;" vertex="1" parent="1">
          <mxGeometry x="420" y="77" width="110" height="60" as="geometry" />
        </mxCell>
        <mxCell id="WE2Rc9Y-2pUT0QXmq-oI-18" value="container" style="rounded=0;whiteSpace=wrap;html=1;fillColor=#dae8fc;strokeColor=#6c8ebf;" vertex="1" parent="1">
          <mxGeometry x="432" y="102" width="90" height="30" as="geometry" />
        </mxCell>
        <mxCell id="WE2Rc9Y-2pUT0QXmq-oI-19" value="container" style="rounded=0;whiteSpace=wrap;html=1;fillColor=#dae8fc;strokeColor=#6c8ebf;" vertex="1" parent="1">
          <mxGeometry x="427" y="97" width="90" height="30" as="geometry" />
        </mxCell>
        <mxCell id="WE2Rc9Y-2pUT0QXmq-oI-20" value="container" style="rounded=0;whiteSpace=wrap;html=1;fillColor=#dae8fc;strokeColor=#6c8ebf;" vertex="1" parent="1">
          <mxGeometry x="423" y="92" width="90" height="30" as="geometry" />
        </mxCell>
        <mxCell id="WE2Rc9Y-2pUT0QXmq-oI-21" value="Container Runtime" style="rounded=0;whiteSpace=wrap;html=1;fillColor=#dae8fc;strokeColor=#6c8ebf;" vertex="1" parent="1">
          <mxGeometry x="285.5" y="178" width="105" height="30" as="geometry" />
        </mxCell>
        <mxCell id="WE2Rc9Y-2pUT0QXmq-oI-22" value="Storage Plugin" style="rounded=0;whiteSpace=wrap;html=1;fillColor=#cce5ff;strokeColor=#36393d;" vertex="1" parent="1">
          <mxGeometry x="400" y="178" width="78" height="30" as="geometry" />
        </mxCell>
        <mxCell id="WE2Rc9Y-2pUT0QXmq-oI-23" value="Network&lt;br&gt;Plugin" style="rounded=0;whiteSpace=wrap;html=1;fillColor=#cce5ff;strokeColor=#36393d;" vertex="1" parent="1">
          <mxGeometry x="490" y="178" width="55" height="30" as="geometry" />
        </mxCell>
        <mxCell id="WE2Rc9Y-2pUT0QXmq-oI-24" value="" style="rounded=0;whiteSpace=wrap;html=1;fillColor=#f9f7ed;strokeColor=#36393d;" vertex="1" parent="1">
          <mxGeometry x="280" y="240" width="290" height="200" as="geometry" />
        </mxCell>
        <mxCell id="WE2Rc9Y-2pUT0QXmq-oI-25" value="" style="rounded=0;whiteSpace=wrap;html=1;fillColor=#cce5ff;strokeColor=#36393d;" vertex="1" parent="1">
          <mxGeometry x="304" y="250" width="106" height="180" as="geometry" />
        </mxCell>
        <mxCell id="WE2Rc9Y-2pUT0QXmq-oI-26" value="Networking" style="rounded=0;whiteSpace=wrap;html=1;fillColor=#d5e8d4;strokeColor=#82b366;" vertex="1" parent="1">
          <mxGeometry x="314.5" y="255" width="70" height="20" as="geometry" />
        </mxCell>
        <mxCell id="WE2Rc9Y-2pUT0QXmq-oI-60" style="edgeStyle=orthogonalEdgeStyle;rounded=0;orthogonalLoop=1;jettySize=auto;html=1;entryX=1;entryY=0.5;entryDx=0;entryDy=0;strokeColor=#67AB9F;exitX=1;exitY=0.25;exitDx=0;exitDy=0;" edge="1" parent="1" source="WE2Rc9Y-2pUT0QXmq-oI-27" target="WE2Rc9Y-2pUT0QXmq-oI-26">
          <mxGeometry relative="1" as="geometry">
            <Array as="points">
              <mxPoint x="400" y="295" />
              <mxPoint x="400" y="265" />
            </Array>
          </mxGeometry>
        </mxCell>
        <mxCell id="WE2Rc9Y-2pUT0QXmq-oI-61" style="edgeStyle=orthogonalEdgeStyle;rounded=0;orthogonalLoop=1;jettySize=auto;html=1;entryX=1;entryY=0.5;entryDx=0;entryDy=0;strokeColor=#B5739D;exitX=1;exitY=0.75;exitDx=0;exitDy=0;" edge="1" parent="1" source="WE2Rc9Y-2pUT0QXmq-oI-27" target="WE2Rc9Y-2pUT0QXmq-oI-28">
          <mxGeometry relative="1" as="geometry">
            <Array as="points">
              <mxPoint x="400" y="305" />
              <mxPoint x="400" y="335" />
            </Array>
          </mxGeometry>
        </mxCell>
        <mxCell id="WE2Rc9Y-2pUT0QXmq-oI-27" value="Kubelet" style="rounded=0;whiteSpace=wrap;html=1;fillColor=#dae8fc;strokeColor=#6c8ebf;" vertex="1" parent="1">
          <mxGeometry x="314.5" y="290" width="70" height="20" as="geometry" />
        </mxCell>
        <mxCell id="WE2Rc9Y-2pUT0QXmq-oI-62" style="edgeStyle=orthogonalEdgeStyle;rounded=0;orthogonalLoop=1;jettySize=auto;html=1;entryX=1.011;entryY=0.447;entryDx=0;entryDy=0;entryPerimeter=0;strokeColor=#CC6600;exitX=1;exitY=0.75;exitDx=0;exitDy=0;" edge="1" parent="1" source="WE2Rc9Y-2pUT0QXmq-oI-28" target="WE2Rc9Y-2pUT0QXmq-oI-29">
          <mxGeometry relative="1" as="geometry">
            <Array as="points">
              <mxPoint x="400" y="343" />
              <mxPoint x="400" y="369" />
            </Array>
          </mxGeometry>
        </mxCell>
        <mxCell id="WE2Rc9Y-2pUT0QXmq-oI-28" value="Container Runtime" style="rounded=0;whiteSpace=wrap;html=1;fillColor=#ffe6cc;strokeColor=#d79b00;" vertex="1" parent="1">
          <mxGeometry x="314.5" y="320" width="70" height="30" as="geometry" />
        </mxCell>
        <mxCell id="WE2Rc9Y-2pUT0QXmq-oI-63" style="edgeStyle=orthogonalEdgeStyle;rounded=0;orthogonalLoop=1;jettySize=auto;html=1;entryX=1;entryY=0.75;entryDx=0;entryDy=0;strokeColor=#000000;exitX=1;exitY=0.75;exitDx=0;exitDy=0;" edge="1" parent="1" source="WE2Rc9Y-2pUT0QXmq-oI-29" target="WE2Rc9Y-2pUT0QXmq-oI-30">
          <mxGeometry relative="1" as="geometry">
            <Array as="points">
              <mxPoint x="400" y="375" />
              <mxPoint x="400" y="405" />
            </Array>
          </mxGeometry>
        </mxCell>
        <mxCell id="WE2Rc9Y-2pUT0QXmq-oI-29" value="OS" style="rounded=0;whiteSpace=wrap;html=1;fillColor=#fff2cc;strokeColor=#d6b656;" vertex="1" parent="1">
          <mxGeometry x="314.5" y="360" width="70" height="20" as="geometry" />
        </mxCell>
        <mxCell id="WE2Rc9Y-2pUT0QXmq-oI-30" value="Hardware" style="rounded=0;whiteSpace=wrap;html=1;fillColor=#e1d5e7;strokeColor=#9673a6;" vertex="1" parent="1">
          <mxGeometry x="314.5" y="390" width="70" height="20" as="geometry" />
        </mxCell>
        <mxCell id="WE2Rc9Y-2pUT0QXmq-oI-40" style="edgeStyle=none;rounded=0;orthogonalLoop=1;jettySize=auto;html=1;entryX=0.25;entryY=0;entryDx=0;entryDy=0;" edge="1" parent="1" source="WE2Rc9Y-2pUT0QXmq-oI-1" target="WE2Rc9Y-2pUT0QXmq-oI-5">
          <mxGeometry relative="1" as="geometry" />
        </mxCell>
        <mxCell id="WE2Rc9Y-2pUT0QXmq-oI-41" style="edgeStyle=none;rounded=0;orthogonalLoop=1;jettySize=auto;html=1;" edge="1" parent="1" source="WE2Rc9Y-2pUT0QXmq-oI-2" target="WE2Rc9Y-2pUT0QXmq-oI-5">
          <mxGeometry relative="1" as="geometry" />
        </mxCell>
        <mxCell id="WE2Rc9Y-2pUT0QXmq-oI-42" style="edgeStyle=none;rounded=0;orthogonalLoop=1;jettySize=auto;html=1;entryX=0.75;entryY=0;entryDx=0;entryDy=0;" edge="1" parent="1" source="WE2Rc9Y-2pUT0QXmq-oI-3" target="WE2Rc9Y-2pUT0QXmq-oI-5">
          <mxGeometry relative="1" as="geometry" />
        </mxCell>
        <mxCell id="WE2Rc9Y-2pUT0QXmq-oI-48" style="edgeStyle=none;rounded=0;orthogonalLoop=1;jettySize=auto;html=1;strokeColor=#0000FF;" edge="1" parent="1" source="WE2Rc9Y-2pUT0QXmq-oI-6" target="WE2Rc9Y-2pUT0QXmq-oI-11">
          <mxGeometry relative="1" as="geometry" />
        </mxCell>
        <mxCell id="WE2Rc9Y-2pUT0QXmq-oI-52" style="edgeStyle=orthogonalEdgeStyle;rounded=0;orthogonalLoop=1;jettySize=auto;html=1;entryX=0;entryY=0.5;entryDx=0;entryDy=0;exitX=0.996;exitY=0.698;exitDx=0;exitDy=0;exitPerimeter=0;strokeColor=#0000FF;" edge="1" parent="1" source="WE2Rc9Y-2pUT0QXmq-oI-6" target="WE2Rc9Y-2pUT0QXmq-oI-27">
          <mxGeometry relative="1" as="geometry">
            <Array as="points">
              <mxPoint x="270" y="165" />
              <mxPoint x="270" y="300" />
            </Array>
          </mxGeometry>
        </mxCell>
        <mxCell id="WE2Rc9Y-2pUT0QXmq-oI-55" value="protobuf" style="endArrow=none;html=1;rounded=0;strokeColor=#3333FF;" edge="1" parent="1">
          <mxGeometry width="50" height="50" relative="1" as="geometry">
            <mxPoint x="40" y="320" as="sourcePoint" />
            <mxPoint x="120" y="320" as="targetPoint" />
          </mxGeometry>
        </mxCell>
        <mxCell id="WE2Rc9Y-2pUT0QXmq-oI-59" value="CNI" style="endArrow=none;html=1;rounded=0;strokeColor=#67AB9F;" edge="1" parent="1">
          <mxGeometry width="50" height="50" relative="1" as="geometry">
            <mxPoint x="40" y="339.86" as="sourcePoint" />
            <mxPoint x="120" y="339.86" as="targetPoint" />
          </mxGeometry>
        </mxCell>
        <mxCell id="WE2Rc9Y-2pUT0QXmq-oI-64" value="Node1" style="text;html=1;align=center;verticalAlign=middle;resizable=0;points=[];autosize=1;strokeColor=none;fillColor=none;" vertex="1" parent="1">
          <mxGeometry x="320" y="408" width="60" height="30" as="geometry" />
        </mxCell>
        <mxCell id="WE2Rc9Y-2pUT0QXmq-oI-66" value="" style="rounded=0;whiteSpace=wrap;html=1;fillColor=#cce5ff;strokeColor=#36393d;" vertex="1" parent="1">
          <mxGeometry x="432" y="250" width="106" height="180" as="geometry" />
        </mxCell>
        <mxCell id="WE2Rc9Y-2pUT0QXmq-oI-67" value="Networking" style="rounded=0;whiteSpace=wrap;html=1;fillColor=#d5e8d4;strokeColor=#82b366;" vertex="1" parent="1">
          <mxGeometry x="442.5" y="255" width="70" height="20" as="geometry" />
        </mxCell>
        <mxCell id="WE2Rc9Y-2pUT0QXmq-oI-68" style="edgeStyle=orthogonalEdgeStyle;rounded=0;orthogonalLoop=1;jettySize=auto;html=1;entryX=1;entryY=0.5;entryDx=0;entryDy=0;strokeColor=#67AB9F;exitX=1;exitY=0.25;exitDx=0;exitDy=0;" edge="1" parent="1" source="WE2Rc9Y-2pUT0QXmq-oI-70" target="WE2Rc9Y-2pUT0QXmq-oI-67">
          <mxGeometry relative="1" as="geometry">
            <Array as="points">
              <mxPoint x="528" y="295" />
              <mxPoint x="528" y="265" />
            </Array>
          </mxGeometry>
        </mxCell>
        <mxCell id="WE2Rc9Y-2pUT0QXmq-oI-69" style="edgeStyle=orthogonalEdgeStyle;rounded=0;orthogonalLoop=1;jettySize=auto;html=1;entryX=1;entryY=0.5;entryDx=0;entryDy=0;strokeColor=#B5739D;exitX=1;exitY=0.75;exitDx=0;exitDy=0;" edge="1" parent="1" source="WE2Rc9Y-2pUT0QXmq-oI-70" target="WE2Rc9Y-2pUT0QXmq-oI-72">
          <mxGeometry relative="1" as="geometry">
            <Array as="points">
              <mxPoint x="528" y="305" />
              <mxPoint x="528" y="335" />
            </Array>
          </mxGeometry>
        </mxCell>
        <mxCell id="WE2Rc9Y-2pUT0QXmq-oI-70" value="Kubelet" style="rounded=0;whiteSpace=wrap;html=1;fillColor=#dae8fc;strokeColor=#6c8ebf;" vertex="1" parent="1">
          <mxGeometry x="442.5" y="290" width="70" height="20" as="geometry" />
        </mxCell>
        <mxCell id="WE2Rc9Y-2pUT0QXmq-oI-71" style="edgeStyle=orthogonalEdgeStyle;rounded=0;orthogonalLoop=1;jettySize=auto;html=1;entryX=1.011;entryY=0.447;entryDx=0;entryDy=0;entryPerimeter=0;strokeColor=#CC6600;exitX=1;exitY=0.75;exitDx=0;exitDy=0;" edge="1" parent="1" source="WE2Rc9Y-2pUT0QXmq-oI-72" target="WE2Rc9Y-2pUT0QXmq-oI-74">
          <mxGeometry relative="1" as="geometry">
            <Array as="points">
              <mxPoint x="528" y="343" />
              <mxPoint x="528" y="369" />
            </Array>
          </mxGeometry>
        </mxCell>
        <mxCell id="WE2Rc9Y-2pUT0QXmq-oI-72" value="Container Runtime" style="rounded=0;whiteSpace=wrap;html=1;fillColor=#ffe6cc;strokeColor=#d79b00;" vertex="1" parent="1">
          <mxGeometry x="442.5" y="320" width="70" height="30" as="geometry" />
        </mxCell>
        <mxCell id="WE2Rc9Y-2pUT0QXmq-oI-73" style="edgeStyle=orthogonalEdgeStyle;rounded=0;orthogonalLoop=1;jettySize=auto;html=1;entryX=1;entryY=0.75;entryDx=0;entryDy=0;strokeColor=#000000;exitX=1;exitY=0.75;exitDx=0;exitDy=0;" edge="1" parent="1" source="WE2Rc9Y-2pUT0QXmq-oI-74" target="WE2Rc9Y-2pUT0QXmq-oI-75">
          <mxGeometry relative="1" as="geometry">
            <Array as="points">
              <mxPoint x="528" y="375" />
              <mxPoint x="528" y="405" />
            </Array>
          </mxGeometry>
        </mxCell>
        <mxCell id="WE2Rc9Y-2pUT0QXmq-oI-74" value="OS" style="rounded=0;whiteSpace=wrap;html=1;fillColor=#fff2cc;strokeColor=#d6b656;" vertex="1" parent="1">
          <mxGeometry x="442.5" y="360" width="70" height="20" as="geometry" />
        </mxCell>
        <mxCell id="WE2Rc9Y-2pUT0QXmq-oI-75" value="Hardware" style="rounded=0;whiteSpace=wrap;html=1;fillColor=#e1d5e7;strokeColor=#9673a6;" vertex="1" parent="1">
          <mxGeometry x="442.5" y="390" width="70" height="20" as="geometry" />
        </mxCell>
        <mxCell id="WE2Rc9Y-2pUT0QXmq-oI-76" value="Node1" style="text;html=1;align=center;verticalAlign=middle;resizable=0;points=[];autosize=1;strokeColor=none;fillColor=none;" vertex="1" parent="1">
          <mxGeometry x="448" y="408" width="60" height="30" as="geometry" />
        </mxCell>
        <mxCell id="WE2Rc9Y-2pUT0QXmq-oI-51" style="edgeStyle=orthogonalEdgeStyle;rounded=0;orthogonalLoop=1;jettySize=auto;html=1;exitX=1;exitY=0.5;exitDx=0;exitDy=0;strokeColor=#0000CC;" edge="1" parent="1" source="WE2Rc9Y-2pUT0QXmq-oI-6" target="WE2Rc9Y-2pUT0QXmq-oI-70">
          <mxGeometry relative="1" as="geometry">
            <mxPoint x="440.4999999999999" y="300" as="targetPoint" />
            <Array as="points">
              <mxPoint x="240" y="165" />
              <mxPoint x="270" y="165" />
              <mxPoint x="270" y="230" />
              <mxPoint x="420" y="230" />
              <mxPoint x="420" y="300" />
            </Array>
          </mxGeometry>
        </mxCell>
        <mxCell id="WE2Rc9Y-2pUT0QXmq-oI-77" value="CRI" style="endArrow=none;html=1;rounded=0;strokeColor=#B5739D;" edge="1" parent="1">
          <mxGeometry width="50" height="50" relative="1" as="geometry">
            <mxPoint x="40" y="360" as="sourcePoint" />
            <mxPoint x="120" y="360" as="targetPoint" />
          </mxGeometry>
        </mxCell>
        <mxCell id="WE2Rc9Y-2pUT0QXmq-oI-78" value="OCI" style="endArrow=none;html=1;rounded=0;strokeColor=#CC6600;" edge="1" parent="1">
          <mxGeometry width="50" height="50" relative="1" as="geometry">
            <mxPoint x="40" y="379.79" as="sourcePoint" />
            <mxPoint x="120" y="379.79" as="targetPoint" />
          </mxGeometry>
        </mxCell>
        <mxCell id="WE2Rc9Y-2pUT0QXmq-oI-79" value="OCI" style="endArrow=none;html=1;rounded=0;strokeColor=#CC6600;" edge="1" parent="1">
          <mxGeometry width="50" height="50" relative="1" as="geometry">
            <mxPoint x="40" y="399.58" as="sourcePoint" />
            <mxPoint x="120" y="399.58" as="targetPoint" />
          </mxGeometry>
        </mxCell>
        <mxCell id="WE2Rc9Y-2pUT0QXmq-oI-80" value="Pod" style="text;html=1;align=center;verticalAlign=middle;resizable=0;points=[];autosize=1;strokeColor=none;fillColor=none;" vertex="1" parent="1">
          <mxGeometry x="314.5" y="69" width="40" height="30" as="geometry" />
        </mxCell>
        <mxCell id="WE2Rc9Y-2pUT0QXmq-oI-81" value="Pod" style="text;html=1;align=center;verticalAlign=middle;resizable=0;points=[];autosize=1;strokeColor=none;fillColor=none;" vertex="1" parent="1">
          <mxGeometry x="452" y="69" width="40" height="30" as="geometry" />
        </mxCell>
        <mxCell id="WE2Rc9Y-2pUT0QXmq-oI-83" style="edgeStyle=orthogonalEdgeStyle;rounded=0;orthogonalLoop=1;jettySize=auto;html=1;entryX=0.75;entryY=1;entryDx=0;entryDy=0;strokeColor=#000000;exitX=0.722;exitY=-0.009;exitDx=0;exitDy=0;exitPerimeter=0;" edge="1" parent="1" source="WE2Rc9Y-2pUT0QXmq-oI-11" target="WE2Rc9Y-2pUT0QXmq-oI-16">
          <mxGeometry relative="1" as="geometry" />
        </mxCell>
        <mxCell id="WE2Rc9Y-2pUT0QXmq-oI-88" value="Node" style="text;html=1;align=center;verticalAlign=middle;resizable=0;points=[];autosize=1;strokeColor=none;fillColor=none;" vertex="1" parent="1">
          <mxGeometry x="522" y="62" width="50" height="30" as="geometry" />
        </mxCell>
        <mxCell id="WE2Rc9Y-2pUT0QXmq-oI-89" value="Node&lt;br&gt;Pool" style="text;html=1;align=center;verticalAlign=middle;resizable=0;points=[];autosize=1;strokeColor=none;fillColor=none;" vertex="1" parent="1">
          <mxGeometry x="529" y="234" width="50" height="40" as="geometry" />
        </mxCell>
        <mxCell id="WE2Rc9Y-2pUT0QXmq-oI-90" value="" style="shape=image;verticalLabelPosition=bottom;labelBackgroundColor=default;verticalAlign=top;aspect=fixed;imageAspect=0;image=https://miro.medium.com/max/1400/1*pxW6zhrLLvhEVcK9rM9naw.png;" vertex="1" parent="1">
          <mxGeometry x="130" y="290" width="126.83" height="110" as="geometry" />
        </mxCell>
      </root>
    </mxGraphModel>
  </diagram>
</mxfile>
